<svg width="14" height="14" viewBox="0 0 14 14" fill="none" xmlns="http://www.w3.org/2000/svg">
<path d="M5.63889 1.16667H8.36111C8.51582 1.16667 8.66419 1.22812 8.77359 1.33752C8.88299 1.44692 8.94444 1.59529 8.94444 1.75V3.11111H5.05556V1.75C5.05556 1.59529 5.11701 1.44692 5.22641 1.33752C5.33581 1.22812 5.48418 1.16667 5.63889 1.16667ZM3.88889 1.75V3.11111H2.52778C1.85737 3.11111 1.21442 3.37743 0.740369 3.85148C0.266319 4.32553 0 4.96848 0 5.63889V6.80556C0 7.55689 0.609778 8.16667 1.36111 8.16667H5.44444V7.77778C5.44444 7.5715 5.52639 7.37367 5.67225 7.22781C5.81811 7.08194 6.01594 7 6.22222 7H7.77778C7.98406 7 8.18189 7.08194 8.32775 7.22781C8.47361 7.37367 8.55556 7.5715 8.55556 7.77778V8.16667H12.6389C12.9999 8.16667 13.3461 8.02326 13.6013 7.76801C13.8566 7.51275 14 7.16654 14 6.80556V5.63889C14 4.96848 13.7337 4.32553 13.2596 3.85148C12.7856 3.37743 12.1426 3.11111 11.4722 3.11111H10.1111V1.75C10.1111 1.28587 9.92674 0.840752 9.59855 0.512563C9.27036 0.184374 8.82524 0 8.36111 0H5.63889C5.17476 0 4.72964 0.184374 4.40145 0.512563C4.07326 0.840752 3.88889 1.28587 3.88889 1.75ZM14 8.93667C13.5936 9.19642 13.1212 9.33409 12.6389 9.33333H8.55556C8.55556 9.53961 8.47361 9.73744 8.32775 9.88331C8.18189 10.0292 7.98406 10.1111 7.77778 10.1111H6.22222C6.01594 10.1111 5.81811 10.0292 5.67225 9.88331C5.52639 9.73744 5.44444 9.53961 5.44444 9.33333H1.36111C0.878796 9.33409 0.406395 9.19642 0 8.93667V11.4722C0 12.1426 0.266319 12.7856 0.740369 13.2596C1.21442 13.7337 1.85737 14 2.52778 14H11.4722C12.1426 14 12.7856 13.7337 13.2596 13.2596C13.7337 12.7856 14 12.1426 14 11.4722V8.93667Z" fill="black"/>
</svg>
