<svg width="17" height="16" viewBox="0 0 17 16" fill="none" xmlns="http://www.w3.org/2000/svg">
<path d="M5.82193 1C6.20022 1 6.57479 1.07451 6.92428 1.21927C7.27377 1.36403 7.59132 1.57621 7.85881 1.8437C8.12629 2.11119 8.33847 2.42874 8.48324 2.77823C8.628 3.12771 8.70251 3.50229 8.70251 3.88057V11.7114C8.70139 12.1553 8.61065 12.5943 8.43573 13.0023C8.2608 13.4103 8.0053 13.7787 7.68453 14.0855C7.36377 14.3924 6.98434 14.6313 6.56902 14.7879C6.15369 14.9445 5.711 15.0157 5.26751 14.9971C4.82401 14.9785 4.38884 14.8706 3.98808 14.6797C3.58731 14.4889 3.22922 14.2191 2.93526 13.8865C2.64129 13.5539 2.41752 13.1653 2.27736 12.7442C2.13719 12.323 2.08351 11.8778 2.11955 11.4354C1.4333 10.6971 1 9.25684 1 8.05256C1 6.41378 1.80487 4.821 2.9571 4.19284C2.91322 3.79049 2.95463 3.38342 3.07861 2.99814C3.20259 2.61287 3.40638 2.25805 3.67667 1.95681C3.94697 1.65556 4.27771 1.41466 4.64735 1.2498C5.01698 1.08494 5.4172 0.999826 5.82193 1Z" stroke="black" stroke-linecap="round" stroke-linejoin="round"/>
<path d="M4.47974 6.15114C4.05613 6.05432 3.09876 5.42616 2.95473 4.20131M6.24561 9.38392C7.97395 9.19027 8.65778 7.36752 8.70257 6.62559M3.00193 9.70708C2.57106 10.046 2.22733 10.8169 2.11719 11.4342M11.5831 1C10.8192 1 10.0865 1.30349 9.54627 1.8437C9.00605 2.38391 8.70257 3.1166 8.70257 3.88057V11.7114C8.70368 12.1553 8.79442 12.5943 8.96935 13.0023C9.14427 13.4103 9.39977 13.7787 9.72054 14.0855C10.0413 14.3924 10.4207 14.6313 10.8361 14.7879C11.2514 14.9445 11.6941 15.0157 12.1376 14.9971C12.5811 14.9785 13.0162 14.8706 13.417 14.6797C13.8178 14.4889 14.1759 14.2191 14.4698 13.8865C14.7638 13.5539 14.9876 13.1653 15.1277 12.7442C15.2679 12.323 15.3216 11.8778 15.2855 11.4354C15.9718 10.6971 16.4039 9.25684 16.4039 8.05256C16.4039 6.41378 15.6002 4.821 14.4468 4.19284C14.4906 3.79059 14.4493 3.38362 14.3253 2.99843C14.2014 2.61324 13.9978 2.25848 13.7276 1.95726C13.4574 1.65603 13.1268 1.41511 12.7573 1.25017C12.3879 1.08524 11.9878 0.999996 11.5831 1Z" stroke="black" stroke-linecap="round" stroke-linejoin="round"/>
<path d="M12.9259 6.14905C13.3496 6.05223 14.3069 5.42407 14.451 4.19922M11.1601 9.38183C9.43174 9.18818 8.74791 7.36543 8.70312 6.6235M14.4038 9.70499C14.8346 10.0439 15.1784 10.8149 15.2885 11.4321" stroke="black" stroke-linecap="round" stroke-linejoin="round"/>
</svg>
