<svg width="26" height="16" viewBox="0 0 26 16" fill="none" xmlns="http://www.w3.org/2000/svg">
<path d="M16.1428 16.0001H0C0.283829 8.63415 3.13395 6.56533 4.52353 6.45166H20.6663C20.5954 14.0904 17.6211 16.0001 16.1428 16.0001Z" fill="black"/>
<path d="M23.3063 0H25.9966C26.0683 2.56477 25.0101 3.99339 24.4721 4.3871H21.3334C21.3334 1.41737 22.6487 0.22498 23.3063 0Z" fill="#7709FF"/>
<path d="M8.70237 11.2738C9.86566 12.5463 9.31467 13.3401 8.77827 13.6553C8.66957 13.7192 8.54587 13.7415 8.41994 13.7355C7.32997 13.6839 5.79573 13.4991 5.49115 12.4513C5.41892 12.2028 5.35517 11.8348 5.29141 11.2738C4.98707 8.59565 5.48091 8.98327 6.14414 9.15946C6.45998 9.27693 7.4138 9.86423 8.70237 11.2738Z" fill="white"/>
<path d="M12.1915 11.3165C11.0068 12.5721 11.5681 13.3553 12.1144 13.6662C12.2252 13.7293 12.3502 13.7511 12.4776 13.7453C13.5901 13.6946 15.1595 13.5239 15.4684 12.454C15.539 12.2093 15.6018 11.8521 15.6646 11.3165C15.9745 8.67425 15.4717 9.05668 14.7964 9.23051C14.4748 9.3464 13.5035 9.92584 12.1915 11.3165Z" fill="white"/>
</svg>
