<svg width="76" height="71" viewBox="0 0 76 71" fill="none" xmlns="http://www.w3.org/2000/svg">
<rect x="60.0273" y="10.0547" width="10" height="10" transform="rotate(89.842 60.0273 10.0547)" fill="#9A66F5"/>
<rect x="70" y="0.0273438" width="10" height="10" transform="rotate(89.842 70 0.0273438)" fill="#9A66F5"/>
<rect x="80.0273" y="10" width="10" height="10" transform="rotate(89.842 80.0273 10)" fill="#9A66F5"/>
<rect x="70.0547" y="20.0273" width="10" height="10" transform="rotate(89.842 70.0547 20.0273)" fill="#9A66F5"/>
<rect x="60.082" y="30.0547" width="10" height="10" transform="rotate(89.842 60.082 30.0547)" fill="#9A66F5"/>
<rect x="50.082" y="30.082" width="10" height="10" transform="rotate(89.842 50.082 30.082)" fill="#9A66F5"/>
<rect x="50.1094" y="40.082" width="10" height="10" transform="rotate(89.842 50.1094 40.082)" fill="#9A66F5"/>
<rect x="40.082" y="30.1094" width="10" height="10" transform="rotate(89.842 40.082 30.1094)" fill="#9A66F5"/>
<rect x="40.0547" y="20.1094" width="10" height="10" transform="rotate(89.842 40.0547 20.1094)" fill="#9A66F5"/>
<rect x="30.0547" y="20.1367" width="10" height="10" transform="rotate(89.842 30.0547 20.1367)" fill="#9A66F5"/>
<rect x="20.082" y="30.1641" width="10" height="10" transform="rotate(89.842 20.082 30.1641)" fill="#9A66F5"/>
<rect x="10.0547" y="20.1914" width="10" height="10" transform="rotate(89.842 10.0547 20.1914)" fill="#9A66F5"/>
<rect x="70.1094" y="40.0273" width="10" height="10" transform="rotate(89.842 70.1094 40.0273)" fill="#9A66F5"/>
<rect x="60.1367" y="50.0547" width="10" height="10" transform="rotate(89.842 60.1367 50.0547)" fill="#9A66F5"/>
<rect x="50.1641" y="60.082" width="10" height="10" transform="rotate(89.842 50.1641 60.082)" fill="#9A66F5"/>
<rect x="30" y="40" width="10" height="10" transform="rotate(89.842 30 40)" fill="#9A66F5"/>
</svg>
