<svg width="18" height="17" viewBox="0 0 18 17" fill="none" xmlns="http://www.w3.org/2000/svg">
<path d="M18 8.49594L16.0036 6.23794L16.2818 3.24892L13.3282 2.5829L11.7818 0L9 1.18586L6.21818 0L4.67182 2.5829L1.71818 3.2408L1.99636 6.22981L0 8.49594L1.99636 10.7539L1.71818 13.7511L4.67182 14.4171L6.21818 17L9 15.806L11.7818 16.9919L13.3282 14.409L16.2818 13.743L16.0036 10.7539L18 8.49594ZM7.36364 12.5571L4.09091 9.30817L5.24455 8.16292L7.36364 10.2585L12.7555 4.90588L13.9091 6.05925L7.36364 12.5571Z" fill="white" fill-opacity="0.6"/>
<path d="M15.5058 6.1916L15.4857 6.40703L15.629 6.56912L17.3326 8.49594L15.629 10.4228L15.4857 10.5848L15.5058 10.8003L15.7433 13.3518L13.2182 13.9212L13.0092 13.9684L12.8992 14.1521L11.5768 16.3609L9.19607 15.3461L8.99933 15.2622L8.80279 15.3466L6.42265 16.3681L5.10081 14.1603L4.99077 13.9765L4.7818 13.9294L2.25663 13.3599L2.49422 10.8002L2.51421 10.5848L2.37095 10.4228L0.666873 8.49535L2.37154 6.56033L2.51421 6.39838L2.49421 6.18348L2.25685 3.63307L4.78053 3.07093L4.99038 3.02419L5.10081 2.83973L6.4232 0.630934L8.80393 1.64581L9 1.72939L9.19607 1.64581L11.5768 0.630934L12.8992 2.83973L13.0092 3.02353L13.2182 3.07065L15.7433 3.64004L15.5058 6.1916ZM7.01138 12.9119L7.36364 13.2616L7.7159 12.9119L14.2614 6.41409L14.6175 6.0605L14.2626 5.70565L13.109 4.55228L12.7567 4.2001L12.4032 4.55104L7.36296 9.55462L5.59612 7.8074L5.24386 7.45906L4.89228 7.80808L3.73865 8.95333L3.38121 9.30817L3.73865 9.66301L7.01138 12.9119Z" stroke="#E1E1E1" stroke-opacity="0.6"/>
</svg>
