<svg width="14" height="14" viewBox="0 0 14 14" fill="none" xmlns="http://www.w3.org/2000/svg">
<path d="M13.2932 12.232L10.3251 9.26261C11.215 8.1029 11.6305 6.6481 11.4873 5.19332C11.3441 3.73854 10.6528 2.39272 9.55376 1.42885C8.45473 0.46499 7.03021 -0.0447324 5.56917 0.00308386C4.10814 0.0509001 2.72 0.652675 1.68634 1.68634C0.652675 2.72 0.0509001 4.10814 0.00308386 5.56917C-0.0447324 7.03021 0.46499 8.45473 1.42885 9.55376C2.39272 10.6528 3.73854 11.3441 5.19332 11.4873C6.6481 11.6305 8.1029 11.215 9.26261 10.3251L12.2332 13.2964C12.303 13.3661 12.3858 13.4215 12.477 13.4592C12.5681 13.497 12.6658 13.5164 12.7645 13.5164C12.8631 13.5164 12.9608 13.497 13.052 13.4592C13.1431 13.4215 13.226 13.3661 13.2957 13.2964C13.3655 13.2266 13.4208 13.1438 13.4586 13.0526C13.4964 12.9615 13.5158 12.8638 13.5158 12.7651C13.5158 12.6664 13.4964 12.5688 13.4586 12.4776C13.4208 12.3864 13.3655 12.3036 13.2957 12.2339L13.2932 12.232ZM1.51261 5.76261C1.51261 4.92204 1.76187 4.10035 2.22886 3.40144C2.69586 2.70253 3.35962 2.15779 4.13621 1.83612C4.91279 1.51445 5.76732 1.43029 6.59174 1.59427C7.41616 1.75826 8.17344 2.16303 8.76781 2.75741C9.36219 3.35178 9.76696 4.10906 9.93095 4.93348C10.0949 5.7579 10.0108 6.61243 9.6891 7.38901C9.36742 8.1656 8.82269 8.82936 8.12378 9.29636C7.42487 9.76335 6.60318 10.0126 5.76261 10.0126C4.6358 10.0115 3.55546 9.56331 2.75869 8.76653C1.96191 7.96976 1.51377 6.88942 1.51261 5.76261Z" fill="black"/>
</svg>
